<?xml version="1.0" encoding="UTF-8" standalone="no"?>
<!DOCTYPE svg PUBLIC "-//W3C//DTD SVG 1.1//EN" "http://www.w3.org/Graphics/SVG/1.1/DTD/svg11.dtd">
<svg width="100%" height="100%" viewBox="0 0 1015 310" version="1.1" xmlns="http://www.w3.org/2000/svg" xmlns:xlink="http://www.w3.org/1999/xlink" xml:space="preserve" xmlns:serif="http://www.serif.com/" style="fill-rule:evenodd;clip-rule:evenodd;stroke-linejoin:round;stroke-miterlimit:2;">
    <g transform="matrix(1,0,0,1,-126.434,-191.31)">
        <g id="Layer1" transform="matrix(1,0,0,1,82.0736,-116.568)">
            <g transform="matrix(1.01615,0,0,1,-128.115,75.2632)">
                <rect x="169.734" y="232.615" width="997.93" height="309.147" style="fill:white;"/>
            </g>
            <g transform="matrix(1,0,0,1,0.468426,-23.7759)">
                <g transform="matrix(2.01535,0,0,0.557377,163.703,244.387)">
                    <rect x="92.197" y="200.598" width="340.115" height="340.115"/>
                </g>
                <g transform="matrix(3.00152,0,0,3.00152,-996.809,-1069.65)">
                    <text x="482.305px" y="553.691px" style="font-family:'NotoSansJP-Regular', 'Noto Sans JP', sans-serif;font-size:12px;">priv<tspan x="503.689px " y="553.691px ">a</tspan>cy &amp; security media</text>
                </g>
                <g transform="matrix(0.707938,0,0,1,-3.78269,132.203)">
                    <rect x="498.171" y="445.497" width="121.802" height="7.917"/>
                </g>
                <g transform="matrix(12.1445,0,0,12.1445,-4952.86,-4652.48)">
                    <text x="438.517px" y="424.886px" style="font-family:'NotoSansJP-Regular', 'Noto Sans JP', sans-serif;font-size:12px;fill:white;">Jurnalitis</text>
                </g>
                <g id="noun_Fingerprint_1007344.svg" transform="matrix(3.05285,0,0,3.05285,182.204,524.706)">
                    <g transform="matrix(1,0,0,1,-50,-62.5)">
                        <path d="M38.6,89.1C37.5,89.1 36.6,88.2 36.6,87.1C36.6,86.5 36.9,85.9 37.4,85.5C45.4,79.8 55.2,68.9 58.6,59.3C61.3,51.7 59.8,41.8 50.4,38.1C47.7,37.1 44.8,36.8 42,37.3C36.7,38.3 32.2,41.9 30.1,46.9C27.4,53.2 23.3,57.8 18,60.6C17,61.1 15.8,60.8 15.3,59.8C14.8,58.8 15.1,57.6 16.1,57.1C16.1,57.1 16.2,57.1 16.2,57C20.7,54.7 24.1,50.8 26.5,45.2C29.1,39 34.7,34.5 41.3,33.2C44.8,32.5 48.5,32.9 51.9,34.2C60.2,37.4 67.1,47 62.4,60.4C58.8,70.8 48.3,82.4 39.8,88.5C39.4,89 39,89.1 38.6,89.1ZM53.5,85.8C52.4,85.8 51.5,84.9 51.5,83.8C51.5,83.3 51.7,82.8 52.1,82.4C58.6,75.6 63.4,68.2 65.6,61.7C70.8,46.8 63.2,35.1 53.1,31.1C49.1,29.6 44.8,29.2 40.6,29.9C32.9,31.3 27,35.6 23.9,41.9L23.8,42.1C22.5,44.8 21.1,47.7 18.2,48.6C17.1,48.8 16.1,48.1 15.8,47.1C15.6,46.1 16.1,45.2 17,44.8C18.2,44.4 19.3,42.3 20.2,40.4L20.3,40.2C24,32.7 30.9,27.7 39.9,26C44.8,25.1 49.9,25.5 54.5,27.4C66.4,32 75.3,45.8 69.3,63C66.9,70 61.7,77.9 54.9,85.1C54.6,85.6 54,85.8 53.5,85.8ZM30.9,85.2C29.8,85.2 28.9,84.4 28.8,83.3C28.8,82.5 29.2,81.8 29.9,81.5C37.2,77.5 48.4,65.7 51.5,56.9C53.8,50.2 50.9,46.4 47.7,45.1C43.4,43.5 38.7,45.7 37.1,49.9C35.1,54.6 29.1,64.7 21.3,68.9C20.3,69.4 19.1,69.1 18.6,68.1C18.1,67.1 18.4,65.9 19.4,65.4C25.7,62 31.4,53.1 33.4,48.3C35.8,42 42.9,38.9 49.2,41.3C56.5,44.1 57.5,52 55.4,58.1C51.9,68.1 40.1,80.5 31.8,85C31.6,85.1 31.2,85.2 30.9,85.2ZM25,78.2C23.9,78.2 23,77.3 23,76.2C23,75.5 23.4,74.8 24,74.4C25.4,73.6 26.6,72.8 27.8,71.8C28.7,71.2 29.9,71.4 30.6,72.3C31.2,73.1 31.1,74.3 30.3,75C28.9,76.1 27.5,77.1 25.9,77.9C25.7,78.1 25.3,78.2 25,78.2ZM70.6,75.5C69.5,75.5 68.6,74.6 68.6,73.5C68.6,73.1 68.7,72.8 68.9,72.5C70.4,69.9 71.7,67.1 72.7,64.2C79.4,45.1 69,29.3 55.9,24.2C50.6,22.1 44.9,21.6 39.4,22.7C31.3,24.2 24.1,29.1 19.7,36.2C19.1,37.1 17.8,37.4 16.9,36.8C16,36.2 15.7,34.9 16.3,34C21.3,26.1 29.4,20.6 38.6,18.9C44.9,17.7 51.4,18.3 57.3,20.7C72.2,26.5 84,44.2 76.5,65.7C75.4,68.8 74,71.8 72.4,74.7C72,75.1 71.3,75.5 70.6,75.5ZM34.2,70.8C33.1,70.8 32.2,69.9 32.2,68.8C32.2,68.3 32.4,67.8 32.8,67.4C38.3,61.6 42.4,54.9 43.8,51C44.2,50 45.4,49.5 46.4,49.9C47.4,50.3 47.9,51.4 47.5,52.4C45.8,56.7 41.5,63.9 35.6,70.1C35.2,70.5 34.7,70.7 34.2,70.8ZM82.9,44.1C82,44.1 81.2,43.5 81,42.6C78.1,31 70.8,22.2 60.2,17.8C49.1,13.2 36.5,14.1 26.2,20.3C25.3,21 24.1,20.8 23.4,19.9C22.7,19 22.9,17.8 23.8,17.1C23.9,17 24,17 24.1,16.9C35.5,10 49.5,9 61.8,14.1C73.6,19 81.8,28.8 84.9,41.6C85.2,42.7 84.5,43.8 83.4,44C83.2,44.1 83,44.1 82.9,44.1Z" style="fill-rule:nonzero;"/>
                    </g>
                </g>
            </g>
        </g>
    </g>
</svg>
